<svg xmlns="http://www.w3.org/2000/svg" viewBox="0 0 128 128" role="img" aria-labelledby="grandPrizeTitle">
  <title id="grandPrizeTitle">Grand Prize Trophy</title>
  <defs>
    <linearGradient id="cup" x1="0%" y1="0%" x2="100%" y2="100%">
      <stop offset="0%" stop-color="#ffe7a3" />
      <stop offset="55%" stop-color="#f5b52d" />
      <stop offset="100%" stop-color="#b9770e" />
    </linearGradient>
    <linearGradient id="base" x1="0%" y1="0%" x2="100%" y2="100%">
      <stop offset="0%" stop-color="#475569" />
      <stop offset="100%" stop-color="#0f172a" />
    </linearGradient>
  </defs>
  <path d="M38 20h52v14c0 20-12.7 37-31.7 42.7l-4.3 1.3-4.3-1.3C30.7 71 18 54 18 34V20z" fill="url(#cup)" />
  <path d="M38 24H18c0 20 6.7 31.7 21 35.6" fill="none" stroke="#d39b24" stroke-width="8" stroke-linecap="round" />
  <path d="M90 24h20c0 20-6.7 31.7-21 35.6" fill="none" stroke="#d39b24" stroke-width="8" stroke-linecap="round" />
  <rect x="56" y="78" width="16" height="16" rx="3" fill="url(#cup)" />
  <rect x="42" y="92" width="44" height="12" rx="4" fill="url(#base)" />
  <rect x="34" y="104" width="60" height="12" rx="4" fill="url(#base)" />
  <circle cx="64" cy="42" r="10" fill="#fff3bf" />
</svg>
